<?xml version="1.0" encoding="UTF-8" standalone="no"?>
<!-- Created with Inkscape (http://www.inkscape.org/) -->

<svg
   xmlns:dc="http://purl.org/dc/elements/1.1/"
   xmlns:cc="http://creativecommons.org/ns#"
   xmlns:rdf="http://www.w3.org/1999/02/22-rdf-syntax-ns#"
   xmlns:svg="http://www.w3.org/2000/svg"
   xmlns="http://www.w3.org/2000/svg"
   xmlns:sodipodi="http://sodipodi.sourceforge.net/DTD/sodipodi-0.dtd"
   xmlns:inkscape="http://www.inkscape.org/namespaces/inkscape"
   width="154.41193mm"
   height="68.88813mm"
   viewBox="0 0 547.12887 244.0918"
   id="svg2"
   version="1.1"
   inkscape:version="0.91 r13725"
   sodipodi:docname="logo.svg">
  <defs
     id="defs4" />
  <sodipodi:namedview
     id="base"
     pagecolor="#ffffff"
     bordercolor="#666666"
     borderopacity="1.0"
     inkscape:pageopacity="0.0"
     inkscape:pageshadow="2"
     inkscape:zoom="0.7"
     inkscape:cx="214.2625"
     inkscape:cy="81.460902"
     inkscape:document-units="px"
     inkscape:current-layer="layer1"
     showgrid="false"
     inkscape:window-width="1280"
     inkscape:window-height="962"
     inkscape:window-x="-8"
     inkscape:window-y="-8"
     inkscape:window-maximized="1"
     inkscape:snap-bbox="true"
     inkscape:bbox-paths="true"
     inkscape:bbox-nodes="true"
     inkscape:snap-bbox-edge-midpoints="true"
     inkscape:snap-bbox-midpoints="true"
     inkscape:snap-global="true"
     borderlayer="true"
     fit-margin-top="0"
     fit-margin-left="0"
     fit-margin-right="0"
     fit-margin-bottom="0" />
  <metadata
     id="metadata7">
    <rdf:RDF>
      <cc:Work
         rdf:about="">
        <dc:format>image/svg+xml</dc:format>
        <dc:type
           rdf:resource="http://purl.org/dc/dcmitype/StillImage" />
        <dc:title></dc:title>
      </cc:Work>
    </rdf:RDF>
  </metadata>
  <g
     inkscape:label="Vrstva 1"
     inkscape:groupmode="layer"
     id="layer1"
     style="display:inline"
     transform="translate(-95.660161,-370.00195)">
    <flowRoot
       xml:space="preserve"
       id="flowRoot4403"
       style="font-style:normal;font-variant:normal;font-weight:bold;font-stretch:normal;font-size:60px;line-height:125%;font-family:'Nexa Bold';-inkscape-font-specification:'Nexa Bold,  Bold';letter-spacing:0px;word-spacing:0px;fill:#000000;fill-opacity:1;stroke:none;stroke-width:1px;stroke-linecap:butt;stroke-linejoin:miter;stroke-opacity:1"><flowRegion
         id="flowRegion4405"><rect
           id="rect4407"
           width="238.57143"
           height="179.28572"
           x="274.28571"
           y="280.21936"
           style="font-style:normal;font-variant:normal;font-weight:bold;font-stretch:normal;font-family:'Nexa Bold';-inkscape-font-specification:'Nexa Bold,  Bold'" /></flowRegion><flowPara
         id="flowPara4409" /></flowRoot>    <flowRoot
       xml:space="preserve"
       id="flowRoot4421"
       style="font-style:normal;font-weight:normal;font-size:60px;line-height:125%;font-family:sans-serif;letter-spacing:0px;word-spacing:0px;fill:#000000;fill-opacity:1;stroke:none;stroke-width:1px;stroke-linecap:butt;stroke-linejoin:miter;stroke-opacity:1"><flowRegion
         id="flowRegion4423"><rect
           id="rect4425"
           width="250"
           height="191.42857"
           x="97.14286"
           y="676.64795" /></flowRegion><flowPara
         id="flowPara4427" /></flowRoot>    <path
       style="opacity:1;fill:#3498db;fill-opacity:1;stroke:none;stroke-width:3;stroke-linecap:butt;stroke-linejoin:miter;stroke-miterlimit:5;stroke-dasharray:none;stroke-dashoffset:0;stroke-opacity:1"
       d="M 520.74219,370.00195 A 122.04571,122.04571 0 0 0 398.69727,492.04883 122.04571,122.04571 0 0 0 520.74219,614.09375 122.04571,122.04571 0 0 0 642.78906,492.04883 122.04571,122.04571 0 0 0 520.74219,370.00195 Z m -32.44336,77.85938 c 16.75,0.625 30,11.875 30,31.75 0,20.75 -14,32 -31.375,32 -10.5,0 -20.25,-5.125 -25.5,-15.375 l 0,40 -5.875,0 0,-87.5 6,0 0,14.625 c 4.875,-9.375 14.75,-15.5 26.75,-15.5 z m 40.13672,0.875 6.625,0 14.375,36.5 7.25,17.875 7.125,-18 15.5,-36.375 6.625,0 -37.625,87.5 -6.5,0 11.375,-26.5 -24.75,-61 z m -41.51172,5 c -14.375,0 -25,10.875 -25,26 0,15.125 10.875,26 25,26 14,0 25.25,-8.75 25.25,-26.125 0,-17.375 -11.25,-25.875 -25.25,-25.875 z"
       id="path5293"
       inkscape:connector-curvature="0" />
    <g
       transform="translate(-85.380149,-12.122782)"
       style="font-style:normal;font-variant:normal;font-weight:bold;font-stretch:normal;font-size:180px;line-height:125%;font-family:'Nexa Bold';-inkscape-font-specification:'Nexa Bold, Bold';letter-spacing:0px;word-spacing:0px;fill:#000000;fill-opacity:1;stroke:none;stroke-width:1px;stroke-linecap:butt;stroke-linejoin:miter;stroke-opacity:1"
       id="flowRoot5295">
      <path
         d="m 204.98031,460.61094 0,89.1 -21.96,0 0,-89.1 21.96,0 z m -23.94,-24.66 c 0,17.1 25.92,17.1 25.92,0 0,-17.1 -25.92,-17.1 -25.92,0 z"
         id="path5598"
         inkscape:connector-curvature="0" />
      <path
         d="m 267.69625,530.63094 c -14.94,0 -25.2,-11.34 -25.2,-25.2 0,-13.86 9.36,-25.2 25.2,-25.2 15.84,0 25.2,11.34 25.2,25.2 0,13.86 -10.26,25.2 -25.2,25.2 z m 49.14,56.16 0,-125.82 -20.52,0 -1.44,12.24 c -6.84,-9.9 -18.72,-14.22 -28.8,-14.22 -27.36,0 -45.54,20.34 -45.54,46.44 0,25.92 16.38,46.44 44.82,46.44 9.36,0 23.22,-2.88 29.52,-12.6 l 0,47.52 21.96,0 z"
         id="path5600"
         inkscape:connector-curvature="0" />
      <path
         d="m 335.95,460.97094 0,88.74 21.96,0 0,-46.8 c 0,-16.38 10.62,-22.5 22.14,-22.5 7.2,0 11.34,1.98 15.84,5.76 l 9.9,-19.08 c -4.86,-4.86 -13.68,-8.46 -22.86,-8.46 -9,0 -18.18,1.62 -25.02,12.6 l -1.62,-10.26 -20.34,0 z"
         id="path5602"
         inkscape:connector-curvature="0" />
      <path
         d="m 443.15688,549.71094 0,-68.22 26.1,0 0,-19.26 -26.1,0 0,-5.94 c 0,-10.8 5.75999,-15.84 13.31999,-15.84 4.5,0 8.82,1.62 13.5,4.68 l 8.1,-16.38 c -7.2,-4.68 -15.29999,-7.2 -23.04,-7.2 -17.81999,0 -33.84,10.98 -33.84,34.74 l 0,5.94 -16.56,0 0,19.26 16.56,0 0,68.22 21.96001,0 z"
         id="path5604"
         inkscape:connector-curvature="0" />
    </g>
  </g>
</svg>
