<?xml version="1.0" encoding="UTF-8" standalone="no"?>
<!-- Created with Inkscape (http://www.inkscape.org/) -->

<svg
   xmlns:dc="http://purl.org/dc/elements/1.1/"
   xmlns:cc="http://creativecommons.org/ns#"
   xmlns:rdf="http://www.w3.org/1999/02/22-rdf-syntax-ns#"
   xmlns:svg="http://www.w3.org/2000/svg"
   xmlns="http://www.w3.org/2000/svg"
   xmlns:sodipodi="http://sodipodi.sourceforge.net/DTD/sodipodi-0.dtd"
   xmlns:inkscape="http://www.inkscape.org/namespaces/inkscape"
   width="106.55515mm"
   height="58.547329mm"
   viewBox="0 0 377.55763 207.45116"
   id="svg2"
   version="1.1"
   inkscape:version="0.91 r13725"
   sodipodi:docname="logo.svg">
  <defs
     id="defs4" />
  <sodipodi:namedview
     id="base"
     pagecolor="#ffffff"
     bordercolor="#666666"
     borderopacity="1.0"
     inkscape:pageopacity="0.0"
     inkscape:pageshadow="2"
     inkscape:zoom="0.98994949"
     inkscape:cx="208.07289"
     inkscape:cy="22.739309"
     inkscape:document-units="px"
     inkscape:current-layer="layer1"
     showgrid="false"
     inkscape:window-width="1280"
     inkscape:window-height="962"
     inkscape:window-x="-8"
     inkscape:window-y="-8"
     inkscape:window-maximized="1"
     inkscape:snap-bbox="true"
     inkscape:bbox-paths="true"
     inkscape:bbox-nodes="true"
     inkscape:snap-bbox-edge-midpoints="true"
     inkscape:snap-bbox-midpoints="true"
     inkscape:snap-global="true"
     borderlayer="true"
     fit-margin-top="0"
     fit-margin-left="0"
     fit-margin-right="0"
     fit-margin-bottom="0" />
  <metadata
     id="metadata7">
    <rdf:RDF>
      <cc:Work
         rdf:about="">
        <dc:format>image/svg+xml</dc:format>
        <dc:type
           rdf:resource="http://purl.org/dc/dcmitype/StillImage" />
        <dc:title></dc:title>
      </cc:Work>
    </rdf:RDF>
  </metadata>
  <g
     inkscape:label="Vrstva 1"
     inkscape:groupmode="layer"
     id="layer1"
     style="display:inline"
     transform="translate(-197.66894,-346.13477)">
    <flowRoot
       xml:space="preserve"
       id="flowRoot4403"
       style="font-style:normal;font-variant:normal;font-weight:bold;font-stretch:normal;font-size:60px;line-height:125%;font-family:'Nexa Bold';-inkscape-font-specification:'Nexa Bold,  Bold';letter-spacing:0px;word-spacing:0px;fill:#000000;fill-opacity:1;stroke:none;stroke-width:1px;stroke-linecap:butt;stroke-linejoin:miter;stroke-opacity:1"><flowRegion
         id="flowRegion4405"><rect
           id="rect4407"
           width="238.57143"
           height="179.28572"
           x="274.28571"
           y="280.21936"
           style="font-style:normal;font-variant:normal;font-weight:bold;font-stretch:normal;font-family:'Nexa Bold';-inkscape-font-specification:'Nexa Bold,  Bold'" /></flowRegion><flowPara
         id="flowPara4409" /></flowRoot>    <g
       transform="translate(18.929543,-9.5168304e-4)"
       style="font-style:normal;font-variant:normal;font-weight:bold;font-stretch:normal;font-size:100.65812683px;line-height:125%;font-family:'Nexa Bold';-inkscape-font-specification:'Nexa Bold,  Bold';letter-spacing:0px;word-spacing:0px;fill:#000000;fill-opacity:1;stroke:none;stroke-width:1px;stroke-linecap:butt;stroke-linejoin:miter;stroke-opacity:1"
       id="flowRoot4411">
      <path
         d="m 192.12693,425.50216 0,49.82577 -12.28029,0 0,-49.82577 12.28029,0 z M 178.7394,411.712 c 0,9.56252 14.49477,9.56252 14.49477,0 0,-9.56253 -14.49477,-9.56253 -14.49477,0 z"
         id="path5185"
         inkscape:connector-curvature="0" />
      <path
         d="m 227.19842,464.65817 c -8.35462,0 -14.09213,-6.34146 -14.09213,-14.09214 0,-7.75067 5.23422,-14.09214 14.09213,-14.09214 8.85792,0 14.09214,6.34147 14.09214,14.09214 0,7.75068 -5.73751,14.09214 -14.09214,14.09214 z m 27.47967,31.40534 0,-70.36004 -11.47502,0 -0.80527,6.84476 c -3.82501,-5.5362 -10.46845,-7.95199 -16.1053,-7.95199 -15.30004,0 -25.46651,11.37436 -25.46651,25.96979 0,14.49477 9.15989,25.9698 25.06388,25.9698 5.23422,0 12.9849,-1.61053 16.50793,-7.04607 l 0,26.57375 12.28029,0 z"
         id="path5187"
         inkscape:connector-curvature="0" />
      <path
         d="m 265.36673,425.70347 0,49.62446 12.28029,0 0,-26.17111 c 0,-9.15989 5.93883,-12.58227 12.38095,-12.58227 4.02632,0 6.34146,1.10724 8.85791,3.22106 l 5.5362,-10.66976 c -2.71777,-2.71777 -7.65002,-4.73093 -12.78358,-4.73093 -5.03291,0 -10.16647,0.90592 -13.99148,7.04607 l -0.90593,-5.73752 -11.37436,0 z"
         id="path5189"
         inkscape:connector-curvature="0" />
      <path
         d="m 325.31808,475.32793 0,-38.14943 14.59543,0 0,-10.77042 -14.59543,0 0,-3.32172 c 0,-6.03948 3.22106,-8.85791 7.4487,-8.85791 2.51645,0 4.93225,0.90592 7.54936,2.61711 l 4.52962,-9.15989 c -4.02633,-2.61711 -8.55594,-4.02632 -12.88424,-4.02632 -9.96516,0 -18.92373,6.14014 -18.92373,19.42701 l 0,3.32172 -9.26055,0 0,10.77042 9.26055,0 0,38.14943 12.28029,0 z"
         id="path5191"
         inkscape:connector-curvature="0" />
    </g>
    <path
       style="opacity:1;fill:#3498db;fill-opacity:1;stroke:none;stroke-width:3;stroke-linecap:butt;stroke-linejoin:miter;stroke-miterlimit:5;stroke-dasharray:none;stroke-dashoffset:0;stroke-opacity:1"
       d="M 471.5,346.13477 A 103.72522,103.72522 0 0 0 367.77539,449.86133 103.72522,103.72522 0 0 0 471.5,553.58594 103.72522,103.72522 0 0 0 575.22656,449.86133 103.72522,103.72522 0 0 0 471.5,346.13477 Z m -52.55273,67.99218 c 15.30003,0 25.46679,11.37332 25.46679,25.96875 0,14.49477 -9.16047,25.97071 -25.06445,25.97071 -5.23422,0 -12.98478,-1.61134 -16.50781,-7.04688 l 0,26.57422 -12.2793,0 0,-70.35937 11.47461,0 0.80469,6.84374 c 3.82501,-5.53619 10.46861,-7.95117 16.10547,-7.95117 z m 30.19726,1.10743 14.29492,0 7.54883,21.43945 4.73047,13.99219 5.13281,-13.68946 9.06055,-21.74218 13.58789,0 -30.29688,70.35937 -13.48828,0 9.25977,-21.54102 -19.83008,-48.81835 z m -31.10351,10.76953 c -8.85792,0 -14.0918,6.34112 -14.0918,14.09179 0,7.75068 5.73717,14.09375 14.0918,14.09375 8.35462,0 14.09375,-6.34307 14.09375,-14.09375 0,-7.75067 -5.23584,-14.09179 -14.09375,-14.09179 z"
       id="path4419"
       inkscape:connector-curvature="0" />
    <flowRoot
       xml:space="preserve"
       id="flowRoot4421"
       style="font-style:normal;font-weight:normal;font-size:60px;line-height:125%;font-family:sans-serif;letter-spacing:0px;word-spacing:0px;fill:#000000;fill-opacity:1;stroke:none;stroke-width:1px;stroke-linecap:butt;stroke-linejoin:miter;stroke-opacity:1"><flowRegion
         id="flowRegion4423"><rect
           id="rect4425"
           width="250"
           height="191.42857"
           x="97.14286"
           y="676.64795" /></flowRegion><flowPara
         id="flowPara4427" /></flowRoot>  </g>
</svg>
