<?xml version="1.0" encoding="UTF-8" standalone="no"?>
<!-- Created with Inkscape (http://www.inkscape.org/) -->

<svg
   xmlns:dc="http://purl.org/dc/elements/1.1/"
   xmlns:cc="http://creativecommons.org/ns#"
   xmlns:rdf="http://www.w3.org/1999/02/22-rdf-syntax-ns#"
   xmlns:svg="http://www.w3.org/2000/svg"
   xmlns="http://www.w3.org/2000/svg"
   xmlns:sodipodi="http://sodipodi.sourceforge.net/DTD/sodipodi-0.dtd"
   xmlns:inkscape="http://www.inkscape.org/namespaces/inkscape"
   width="119.09289mm"
   height="70.520828mm"
   viewBox="0 0 421.98267 249.87695"
   id="svg2"
   version="1.1"
   inkscape:version="0.91 r13725"
   sodipodi:docname="logo.svg">
  <defs
     id="defs4" />
  <sodipodi:namedview
     id="base"
     pagecolor="#ffffff"
     bordercolor="#666666"
     borderopacity="1.0"
     inkscape:pageopacity="0.0"
     inkscape:pageshadow="2"
     inkscape:zoom="0.49497475"
     inkscape:cx="92.858055"
     inkscape:cy="286.70898"
     inkscape:document-units="px"
     inkscape:current-layer="layer1"
     showgrid="false"
     inkscape:window-width="1280"
     inkscape:window-height="962"
     inkscape:window-x="-8"
     inkscape:window-y="-8"
     inkscape:window-maximized="1"
     inkscape:snap-bbox="true"
     inkscape:bbox-paths="true"
     inkscape:bbox-nodes="true"
     inkscape:snap-bbox-edge-midpoints="true"
     inkscape:snap-bbox-midpoints="true"
     inkscape:snap-global="true"
     borderlayer="true"
     fit-margin-top="0"
     fit-margin-left="0"
     fit-margin-right="0"
     fit-margin-bottom="0" />
  <metadata
     id="metadata7">
    <rdf:RDF>
      <cc:Work
         rdf:about="">
        <dc:format>image/svg+xml</dc:format>
        <dc:type
           rdf:resource="http://purl.org/dc/dcmitype/StillImage" />
        <dc:title></dc:title>
      </cc:Work>
    </rdf:RDF>
  </metadata>
  <g
     inkscape:label="Vrstva 1"
     inkscape:groupmode="layer"
     id="layer1"
     style="display:inline"
     transform="translate(-198.73999,-324.92188)">
    <flowRoot
       xml:space="preserve"
       id="flowRoot4403"
       style="font-style:normal;font-variant:normal;font-weight:bold;font-stretch:normal;font-size:60px;line-height:125%;font-family:'Nexa Bold';-inkscape-font-specification:'Nexa Bold,  Bold';letter-spacing:0px;word-spacing:0px;fill:#000000;fill-opacity:1;stroke:none;stroke-width:1px;stroke-linecap:butt;stroke-linejoin:miter;stroke-opacity:1"><flowRegion
         id="flowRegion4405"><rect
           id="rect4407"
           width="238.57143"
           height="179.28572"
           x="274.28571"
           y="280.21936"
           style="font-style:normal;font-variant:normal;font-weight:bold;font-stretch:normal;font-family:'Nexa Bold';-inkscape-font-specification:'Nexa Bold,  Bold'" /></flowRegion><flowPara
         id="flowPara4409" /></flowRoot>    <g
       transform="matrix(1.6776354,0,0,1.6776354,-139.70618,-186.20857)"
       style="font-style:normal;font-variant:normal;font-weight:bold;font-stretch:normal;font-size:60px;line-height:125%;font-family:'Nexa Bold';-inkscape-font-specification:'Nexa Bold,  Bold';letter-spacing:0px;word-spacing:0px;fill:#000000;fill-opacity:1;stroke:none;stroke-width:1px;stroke-linecap:butt;stroke-linejoin:miter;stroke-opacity:1"
       id="flowRoot4411">
      <path
         d="m 209.72,364.62617 0,29.7 -7.32,0 0,-29.7 7.32,0 z m -7.98,-8.22 c 0,5.7 8.64,5.7 8.64,0 0,-5.7 -8.64,-5.7 -8.64,0 z"
         id="path4501"
         inkscape:connector-curvature="0" />
      <path
         d="m 230.62531,387.96617 c -4.98,0 -8.4,-3.78 -8.4,-8.4 0,-4.62 3.12,-8.4 8.4,-8.4 5.28,0 8.4,3.78 8.4,8.4 0,4.62 -3.42,8.4 -8.4,8.4 z m 16.38,18.72 0,-41.94 -6.84,0 -0.48,4.08 c -2.28,-3.3 -6.24,-4.74 -9.6,-4.74 -9.12,0 -15.18,6.78 -15.18,15.48 0,8.64 5.46,15.48 14.94,15.48 3.12,0 7.74,-0.96 9.84,-4.2 l 0,15.84 7.32,0 z"
         id="path4503"
         inkscape:connector-curvature="0" />
      <path
         d="m 253.37656,364.74617 0,29.58 7.32,0 0,-15.6 c 0,-5.46 3.54,-7.5 7.38,-7.5 2.4,0 3.78,0.66 5.28,1.92 l 3.3,-6.36 c -1.62,-1.62 -4.56,-2.82 -7.62,-2.82 -3,0 -6.06,0.54 -8.34,4.2 l -0.54,-3.42 -6.78,0 z"
         id="path4505"
         inkscape:connector-curvature="0" />
      <path
         d="m 289.11219,394.32617 0,-22.74 8.7,0 0,-6.42 -8.7,0 0,-1.98 c 0,-3.6 1.92,-5.28 4.44,-5.28 1.5,0 2.94,0.54 4.5,1.56 l 2.7,-5.46 c -2.4,-1.56 -5.1,-2.4 -7.68,-2.4 -5.94,0 -11.28,3.66 -11.28,11.58 l 0,1.98 -5.52,0 0,6.42 5.52,0 0,22.74 7.32,0 z"
         id="path4507"
         inkscape:connector-curvature="0" />
    </g>
    <path
       style="opacity:1;fill:#3498db;fill-opacity:1;stroke:none;stroke-width:3;stroke-linecap:butt;stroke-linejoin:miter;stroke-miterlimit:5;stroke-dasharray:none;stroke-dashoffset:0;stroke-opacity:1"
       d="M 495.78516,324.92188 A 124.93842,124.93842 0 0 0 370.8457,449.86133 124.93842,124.93842 0 0 0 495.78516,574.79883 124.93842,124.93842 0 0 0 620.72266,449.86133 124.93842,124.93842 0 0 0 495.78516,324.92188 Z m -84.55274,89.20507 c 15.30004,0 25.4668,11.37332 25.4668,25.96875 0,14.49477 -9.16047,25.97071 -25.06445,25.97071 -5.23423,0 -12.98478,-1.61134 -16.50782,-7.04688 l 0,26.57422 -12.28125,0 0,-70.35937 11.47657,0 0.80468,6.84374 c 3.82501,-5.53619 10.46862,-7.95117 16.10547,-7.95117 z m 30.19727,1.10743 14.29297,0 7.54882,21.43945 4.73243,13.99219 5.13281,-13.68946 9.05859,-21.74218 13.58985,0 -30.29883,70.35937 -13.48828,0 9.26172,-21.54102 -19.83008,-48.81835 z m -31.10352,10.76953 c -8.85791,0 -14.09179,6.34112 -14.09179,14.09179 -10e-6,7.75068 5.73717,14.09375 14.09179,14.09375 8.35463,0 14.0918,-6.34307 14.0918,-14.09375 0,-7.75067 -5.23388,-14.09179 -14.0918,-14.09179 z"
       id="path4419"
       inkscape:connector-curvature="0" />
    <flowRoot
       xml:space="preserve"
       id="flowRoot4421"
       style="font-style:normal;font-weight:normal;font-size:60px;line-height:125%;font-family:sans-serif;letter-spacing:0px;word-spacing:0px;fill:#000000;fill-opacity:1;stroke:none;stroke-width:1px;stroke-linecap:butt;stroke-linejoin:miter;stroke-opacity:1"><flowRegion
         id="flowRegion4423"><rect
           id="rect4425"
           width="250"
           height="191.42857"
           x="97.14286"
           y="676.64795" /></flowRegion><flowPara
         id="flowPara4427" /></flowRoot>  </g>
</svg>
